<svg width="3145" height="300" viewBox="0 0 3145 300" fill="none" xmlns="http://www.w3.org/2000/svg">
    <rect width="300" height="300" rx="63" fill="#6786FF" />
    <path
        d="M150 80C150.012 76.0003 149.224 72.0387 147.682 68.348C146.14 64.6574 143.876 61.3123 141.023 58.5095C138.169 55.7067 134.784 53.5027 131.067 52.0273C127.349 50.5519 123.374 49.8348 119.375 49.9181C115.376 50.0015 111.434 50.8836 107.781 52.5127C104.128 54.1417 100.838 56.4848 98.104 59.4041C95.3699 62.3233 93.2471 65.7599 91.8605 69.5115C90.4739 73.2632 89.8516 77.2543 90.03 81.25C84.152 82.7614 78.695 85.5905 74.0723 89.5231C69.4496 93.4558 65.7824 98.3887 63.3484 103.948C60.9145 109.508 59.7776 115.549 60.0239 121.613C60.2702 127.677 61.8932 133.606 64.77 138.95C59.7118 143.059 55.7343 148.342 53.1834 154.339C50.6325 160.336 49.5856 166.866 50.1336 173.36C50.6817 179.854 52.8082 186.116 56.3281 191.6C59.848 197.085 64.6547 201.627 70.33 204.83C69.6292 210.252 70.0474 215.761 71.5589 221.015C73.0704 226.27 75.643 231.158 79.1179 235.38C82.5927 239.601 86.8961 243.065 91.7622 245.558C96.6283 248.05 101.954 249.519 107.41 249.873C112.866 250.227 118.336 249.459 123.484 247.616C128.631 245.773 133.346 242.894 137.338 239.158C141.329 235.421 144.512 230.906 146.69 225.891C148.868 220.876 149.994 215.467 150 210V80Z"
        stroke="#DDE4FF" stroke-width="20" stroke-linecap="round" stroke-linejoin="round" />
    <path
        d="M150 80C149.988 76.0003 150.776 72.0387 152.318 68.348C153.86 64.6574 156.124 61.3123 158.977 58.5095C161.831 55.7067 165.216 53.5027 168.933 52.0273C172.651 50.5519 176.626 49.8348 180.625 49.9181C184.624 50.0015 188.566 50.8836 192.219 52.5127C195.872 54.1417 199.162 56.4848 201.896 59.4041C204.63 62.3233 206.753 65.7599 208.14 69.5115C209.526 73.2632 210.148 77.2543 209.97 81.25C215.848 82.7614 221.305 85.5905 225.928 89.5231C230.55 93.4558 234.218 98.3887 236.652 103.948C239.086 109.508 240.222 115.549 239.976 121.613C239.73 127.677 238.107 133.606 235.23 138.95C240.288 143.059 244.266 148.342 246.817 154.339C249.368 160.336 250.414 166.866 249.866 173.36C249.318 179.854 247.192 186.116 243.672 191.6C240.152 197.085 235.345 201.627 229.67 204.83C230.371 210.252 229.953 215.761 228.441 221.015C226.93 226.27 224.357 231.158 220.882 235.38C217.407 239.601 213.104 243.065 208.238 245.558C203.372 248.05 198.046 249.519 192.59 249.873C187.134 250.227 181.664 249.459 176.516 247.616C171.369 245.773 166.654 242.894 162.662 239.158C158.671 235.421 155.488 230.906 153.31 225.891C151.132 220.876 150.006 215.467 150 210V80Z"
        stroke="#DDE4FF" stroke-width="20" stroke-linecap="round" stroke-linejoin="round" />
    <path
        d="M180 160C171.604 157.047 164.273 151.67 158.933 144.55C153.593 137.43 150.485 128.887 150 120C149.515 128.887 146.407 137.43 141.067 144.55C135.727 151.67 128.396 157.047 120 160"
        stroke="#DDE4FF" stroke-width="20" stroke-linecap="round" stroke-linejoin="round" />
    <path d="M205.99 95C208.41 90.8059 209.779 86.0882 209.98 81.25" stroke="#DDE4FF" stroke-width="20"
        stroke-linecap="round" stroke-linejoin="round" />
    <path d="M90.03 81.25C90.2278 86.0873 91.5933 90.805 94.01 95" stroke="#DDE4FF" stroke-width="20"
        stroke-linecap="round" stroke-linejoin="round" />
    <path d="M64.77 138.96C66.5994 137.47 68.557 136.145 70.62 135" stroke="#DDE4FF" stroke-width="20"
        stroke-linecap="round" stroke-linejoin="round" />
    <path d="M229.38 135C231.443 136.145 233.401 137.47 235.23 138.96" stroke="#DDE4FF" stroke-width="20"
        stroke-linecap="round" stroke-linejoin="round" />
    <path d="M90 210C83.1083 210.003 76.3326 208.226 70.33 204.84" stroke="#DDE4FF" stroke-width="20"
        stroke-linecap="round" stroke-linejoin="round" />
    <path d="M229.67 204.84C223.667 208.226 216.892 210.003 210 210" stroke="#DDE4FF" stroke-width="20"
        stroke-linecap="round" stroke-linejoin="round" />
    <path
        d="M465.75 233.5C436.75 233.5 412.833 228.042 394 217.125L396.375 199C406.208 204.25 417.333 208.25 429.75 211C442.25 213.75 454.25 215.125 465.75 215.125C473 215.125 479.542 214.625 485.375 213.625C491.292 212.542 496.708 210.875 501.625 208.625C506.625 206.292 510.5 203.042 513.25 198.875C516 194.708 517.375 189.708 517.375 183.875C517.375 179.292 516.542 175.292 514.875 171.875C513.292 168.375 511.208 165.458 508.625 163.125C506.042 160.792 502.333 158.625 497.5 156.625C492.75 154.625 488.042 153.042 483.375 151.875C478.792 150.625 472.75 149.167 465.25 147.5C442.917 143.167 426.458 137.375 415.875 130.125C405.375 122.792 400.125 112.375 400.125 98.875C400.125 90.7083 401.917 83.4167 405.5 77C409.167 70.5833 414.167 65.4167 420.5 61.5C426.833 57.5 434.042 54.4583 442.125 52.375C450.208 50.2917 458.917 49.25 468.25 49.25C489.5 49.25 509.458 53.6667 528.125 62.5L524.625 81.25C505.625 72 486.917 67.375 468.5 67.375C463.083 67.375 458.083 67.7083 453.5 68.375C448.917 69.0417 444.583 70.125 440.5 71.625C436.5 73.125 433.083 75.0417 430.25 77.375C427.417 79.7083 425.167 82.625 423.5 86.125C421.917 89.625 421.125 93.625 421.125 98.125C421.125 101.792 421.792 105.042 423.125 107.875C424.542 110.625 426.417 113.042 428.75 115.125C431.167 117.208 434.5 119.167 438.75 121C443.083 122.75 447.667 124.333 452.5 125.75C457.333 127.083 463.375 128.542 470.625 130.125C479.708 131.958 487.542 133.917 494.125 136C500.792 138 507 140.458 512.75 143.375C518.583 146.292 523.292 149.583 526.875 153.25C530.542 156.917 533.375 161.292 535.375 166.375C537.375 171.375 538.375 177.042 538.375 183.375C538.375 191.625 536.417 199 532.5 205.5C528.583 212 523.208 217.25 516.375 221.25C509.625 225.25 501.917 228.292 493.25 230.375C484.667 232.458 475.5 233.5 465.75 233.5ZM690.625 91.75V51.75H710.625V91.75C710.625 113 705 130.333 693.75 143.75C682.583 157.167 667.208 164.917 647.625 167V231H628V167C608.417 164.917 592.958 157.208 581.625 143.875C570.375 130.458 564.75 113.083 564.75 91.75V51.75H584.625V91.75C584.625 109.667 589.375 123.917 598.875 134.5C608.458 145.083 621.375 150.375 637.625 150.375C653.958 150.375 666.875 145.125 676.375 134.625C685.875 124.042 690.625 109.75 690.625 91.75ZM810.75 49.5C834 49.5 852.333 56.2917 865.75 69.875C879.25 83.375 886 101.917 886 125.5V231H866.25V129.125C866.25 110.542 861.292 96.0833 851.375 85.75C841.542 75.4167 828 70.25 810.75 70.25C793.583 70.25 780.042 75.4583 770.125 85.875C760.292 96.2083 755.375 110.625 755.375 129.125V231H735.5V125.5C735.5 101.917 742.25 83.375 755.75 69.875C769.25 56.2917 787.583 49.5 810.75 49.5ZM944.875 231H925V128.375C925 104.208 931.917 85.0417 945.75 70.875C959.667 56.625 977.833 49.5 1000.25 49.5C1022.67 49.5 1040.79 56.625 1054.62 70.875C1068.54 85.0417 1075.5 104.208 1075.5 128.375V231H1055.75V170.875H944.875V231ZM944.875 128.375V152.875H1055.75V128.375C1055.75 109.458 1050.67 94.5833 1040.5 83.75C1030.33 72.8333 1016.92 67.375 1000.25 67.375C983.75 67.375 970.375 72.8333 960.125 83.75C949.958 94.5833 944.875 109.458 944.875 128.375ZM1184.12 49.25C1194.71 49.25 1204.38 50.9583 1213.12 54.375C1221.96 57.7917 1229.17 62.375 1234.75 68.125C1240.42 73.875 1244.79 80.4583 1247.88 87.875C1250.96 95.2083 1252.5 102.875 1252.5 110.875C1252.5 129.458 1245.67 144.458 1232 155.875C1218.33 167.208 1199.29 172.875 1174.88 172.875H1134.88V231H1114.5V124.75C1114.5 114.417 1116 104.708 1119 95.625C1122.08 86.5417 1126.5 78.5417 1132.25 71.625C1138 64.7083 1145.33 59.25 1154.25 55.25C1163.17 51.25 1173.12 49.25 1184.12 49.25ZM1134.88 155H1180.25C1196.5 155 1209.21 151.042 1218.38 143.125C1227.62 135.208 1232.25 124.75 1232.25 111.75C1232.25 99.5 1227.79 89 1218.88 80.25C1209.96 71.5 1198.21 67.125 1183.62 67.125C1175.21 67.125 1167.79 68.7917 1161.38 72.125C1154.96 75.375 1149.88 79.7917 1146.12 85.375C1142.38 90.875 1139.54 96.9583 1137.62 103.625C1135.79 110.292 1134.88 117.333 1134.88 124.75V155ZM1346 233.5C1317 233.5 1293.08 228.042 1274.25 217.125L1276.62 199C1286.46 204.25 1297.58 208.25 1310 211C1322.5 213.75 1334.5 215.125 1346 215.125C1353.25 215.125 1359.79 214.625 1365.62 213.625C1371.54 212.542 1376.96 210.875 1381.88 208.625C1386.88 206.292 1390.75 203.042 1393.5 198.875C1396.25 194.708 1397.62 189.708 1397.62 183.875C1397.62 179.292 1396.79 175.292 1395.12 171.875C1393.54 168.375 1391.46 165.458 1388.88 163.125C1386.29 160.792 1382.58 158.625 1377.75 156.625C1373 154.625 1368.29 153.042 1363.62 151.875C1359.04 150.625 1353 149.167 1345.5 147.5C1323.17 143.167 1306.71 137.375 1296.12 130.125C1285.62 122.792 1280.38 112.375 1280.38 98.875C1280.38 90.7083 1282.17 83.4167 1285.75 77C1289.42 70.5833 1294.42 65.4167 1300.75 61.5C1307.08 57.5 1314.29 54.4583 1322.38 52.375C1330.46 50.2917 1339.17 49.25 1348.5 49.25C1369.75 49.25 1389.71 53.6667 1408.38 62.5L1404.88 81.25C1385.88 72 1367.17 67.375 1348.75 67.375C1343.33 67.375 1338.33 67.7083 1333.75 68.375C1329.17 69.0417 1324.83 70.125 1320.75 71.625C1316.75 73.125 1313.33 75.0417 1310.5 77.375C1307.67 79.7083 1305.42 82.625 1303.75 86.125C1302.17 89.625 1301.38 93.625 1301.38 98.125C1301.38 101.792 1302.04 105.042 1303.38 107.875C1304.79 110.625 1306.67 113.042 1309 115.125C1311.42 117.208 1314.75 119.167 1319 121C1323.33 122.75 1327.92 124.333 1332.75 125.75C1337.58 127.083 1343.62 128.542 1350.88 130.125C1359.96 131.958 1367.79 133.917 1374.38 136C1381.04 138 1387.25 140.458 1393 143.375C1398.83 146.292 1403.54 149.583 1407.12 153.25C1410.79 156.917 1413.62 161.292 1415.62 166.375C1417.62 171.375 1418.62 177.042 1418.62 183.375C1418.62 191.625 1416.67 199 1412.75 205.5C1408.83 212 1403.46 217.25 1396.62 221.25C1389.88 225.25 1382.17 228.292 1373.5 230.375C1364.92 232.458 1355.75 233.5 1346 233.5ZM1516.75 216.375C1526.5 216.375 1536.42 215.167 1546.5 212.75C1556.58 210.333 1565.54 206.875 1573.38 202.375L1581.25 217.125C1561.92 228.042 1540.17 233.5 1516 233.5C1502.75 233.5 1490.71 231.75 1479.88 228.25C1469.12 224.667 1460.33 219.125 1453.5 211.625C1446.67 204.042 1443.25 195.042 1443.25 184.625C1443.25 172.792 1446.96 162.542 1454.38 153.875C1461.88 145.208 1472.25 139.667 1485.5 137.25C1472.42 135.333 1462.46 130.833 1455.62 123.75C1448.79 116.667 1445.38 107.458 1445.38 96.125C1445.38 88.4583 1447.29 81.5833 1451.12 75.5C1454.96 69.4167 1460.12 64.5 1466.62 60.75C1473.21 57 1480.67 54.1667 1489 52.25C1497.33 50.25 1506.25 49.25 1515.75 49.25C1527.08 49.25 1538.46 50.6667 1549.88 53.5C1561.29 56.25 1571.75 60.2083 1581.25 65.375L1573.38 80.5C1565.29 75.9167 1556.33 72.4167 1546.5 70C1536.67 67.5833 1526.92 66.375 1517.25 66.375C1508 66.375 1499.67 67.5 1492.25 69.75C1484.83 72 1478.75 75.5833 1474 80.5C1469.25 85.3333 1466.88 91.2083 1466.88 98.125C1466.88 108.625 1470.92 116.25 1479 121C1487.17 125.75 1499.17 128.125 1515 128.125H1553.88V146H1514.25C1498.92 146 1486.83 149.417 1478 156.25C1469.17 163 1464.75 172.042 1464.75 183.375C1464.75 189.042 1466.12 194.042 1468.88 198.375C1471.62 202.708 1475.42 206.167 1480.25 208.75C1485.08 211.333 1490.54 213.25 1496.62 214.5C1502.79 215.75 1509.5 216.375 1516.75 216.375ZM1752.12 49.25C1762.71 49.25 1772.38 50.9583 1781.12 54.375C1789.96 57.7917 1797.17 62.375 1802.75 68.125C1808.42 73.875 1812.79 80.4583 1815.88 87.875C1818.96 95.2083 1820.5 102.875 1820.5 110.875C1820.5 129.458 1813.67 144.458 1800 155.875C1786.33 167.208 1767.29 172.875 1742.88 172.875H1702.88V231H1682.5V124.75C1682.5 114.417 1684 104.708 1687 95.625C1690.08 86.5417 1694.5 78.5417 1700.25 71.625C1706 64.7083 1713.33 59.25 1722.25 55.25C1731.17 51.25 1741.12 49.25 1752.12 49.25ZM1702.88 155H1748.25C1764.5 155 1777.21 151.042 1786.38 143.125C1795.62 135.208 1800.25 124.75 1800.25 111.75C1800.25 99.5 1795.79 89 1786.88 80.25C1777.96 71.5 1766.21 67.125 1751.62 67.125C1743.21 67.125 1735.79 68.7917 1729.38 72.125C1722.96 75.375 1717.88 79.7917 1714.12 85.375C1710.38 90.875 1707.54 96.9583 1705.62 103.625C1703.79 110.292 1702.88 117.333 1702.88 124.75V155ZM1946.5 169.25L2003 231H1979.25L1925.5 172.625C1923.58 172.792 1920.67 172.875 1916.75 172.875H1876.88V231H1856.38V124.75C1856.38 114.417 1857.92 104.708 1861 95.625C1864.08 86.5417 1868.5 78.5417 1874.25 71.625C1880 64.7083 1887.33 59.25 1896.25 55.25C1905.17 51.25 1915.08 49.25 1926 49.25C1936.67 49.25 1946.38 50.9583 1955.12 54.375C1963.96 57.7917 1971.17 62.4167 1976.75 68.25C1982.42 74 1986.75 80.5417 1989.75 87.875C1992.83 95.2083 1994.38 102.875 1994.38 110.875C1994.38 125.208 1990.21 137.5 1981.88 147.75C1973.62 158 1961.83 165.167 1946.5 169.25ZM1876.88 124.75V155H1922.12C1938.38 155 1951.12 151.042 1960.38 143.125C1969.71 135.208 1974.38 124.75 1974.38 111.75C1974.38 99.5 1969.88 89 1960.88 80.25C1951.88 71.5 1940.08 67.125 1925.5 67.125C1918.75 67.125 1912.58 68.2083 1907 70.375C1901.5 72.5417 1896.92 75.4583 1893.25 79.125C1889.58 82.7917 1886.5 87.125 1884 92.125C1881.5 97.125 1879.67 102.333 1878.5 107.75C1877.42 113.167 1876.88 118.833 1876.88 124.75ZM2123.38 233.5C2105.79 233.5 2089.92 229.583 2075.75 221.75C2061.58 213.833 2050.5 202.875 2042.5 188.875C2034.58 174.792 2030.62 158.958 2030.62 141.375C2030.62 123.792 2034.62 108 2042.62 94C2050.62 79.9167 2061.71 68.9583 2075.88 61.125C2090.04 53.2083 2105.96 49.25 2123.62 49.25C2141.29 49.25 2157.21 53.2083 2171.38 61.125C2185.54 68.9583 2196.58 79.9167 2204.5 94C2212.5 108 2216.5 123.792 2216.5 141.375C2216.5 158.958 2212.5 174.792 2204.5 188.875C2196.58 202.875 2185.5 213.833 2171.25 221.75C2157.08 229.583 2141.12 233.5 2123.38 233.5ZM2071.75 194.625C2085.25 208.292 2102.54 215.125 2123.62 215.125C2144.71 215.125 2161.96 208.292 2175.38 194.625C2188.79 180.958 2195.5 163.208 2195.5 141.375C2195.5 119.542 2188.79 101.75 2175.38 88C2161.96 74.25 2144.71 67.375 2123.62 67.375C2102.54 67.375 2085.25 74.25 2071.75 88C2058.33 101.75 2051.62 119.542 2051.62 141.375C2051.62 163.125 2058.33 180.875 2071.75 194.625ZM2227.12 51.75H2373.88V69.5H2310.38V231H2290.38V69.5H2227.12V51.75ZM2476.88 233.5C2459.29 233.5 2443.42 229.583 2429.25 221.75C2415.08 213.833 2404 202.875 2396 188.875C2388.08 174.792 2384.12 158.958 2384.12 141.375C2384.12 123.792 2388.12 108 2396.12 94C2404.12 79.9167 2415.21 68.9583 2429.38 61.125C2443.54 53.2083 2459.46 49.25 2477.12 49.25C2494.79 49.25 2510.71 53.2083 2524.88 61.125C2539.04 68.9583 2550.08 79.9167 2558 94C2566 108 2570 123.792 2570 141.375C2570 158.958 2566 174.792 2558 188.875C2550.08 202.875 2539 213.833 2524.75 221.75C2510.58 229.583 2494.62 233.5 2476.88 233.5ZM2425.25 194.625C2438.75 208.292 2456.04 215.125 2477.12 215.125C2498.21 215.125 2515.46 208.292 2528.88 194.625C2542.29 180.958 2549 163.208 2549 141.375C2549 119.542 2542.29 101.75 2528.88 88C2515.46 74.25 2498.21 67.375 2477.12 67.375C2456.04 67.375 2438.75 74.25 2425.25 88C2411.83 101.75 2405.12 119.542 2405.12 141.375C2405.12 163.125 2411.83 180.875 2425.25 194.625ZM2696.62 233.5C2686.62 233.5 2677 232.125 2667.75 229.375C2658.5 226.625 2650 222.583 2642.25 217.25C2634.58 211.833 2627.88 205.458 2622.12 198.125C2616.38 190.708 2611.88 182.167 2608.62 172.5C2605.46 162.75 2603.88 152.375 2603.88 141.375C2603.88 123.375 2607.83 107.333 2615.75 93.25C2623.75 79.1667 2634.62 68.3333 2648.38 60.75C2662.21 53.0833 2677.75 49.25 2695 49.25C2707.5 49.25 2718.92 51 2729.25 54.5C2739.67 58 2750.54 63.5833 2761.88 71.25L2753.12 86.875C2743.04 80.125 2733.67 75.2083 2725 72.125C2716.33 68.9583 2706.75 67.375 2696.25 67.375C2682.92 67.375 2670.83 70.2917 2660 76.125C2649.25 81.9583 2640.62 90.5417 2634.12 101.875C2627.62 113.125 2624.38 126.208 2624.38 141.125C2624.38 163.042 2631.12 180.875 2644.62 194.625C2658.21 208.292 2675.54 215.125 2696.62 215.125C2707.21 215.125 2717.04 213.542 2726.12 210.375C2735.21 207.208 2744.38 202.375 2753.62 195.875L2762.38 211.5C2741.46 226.167 2719.54 233.5 2696.62 233.5ZM2878.62 233.5C2861.04 233.5 2845.17 229.583 2831 221.75C2816.83 213.833 2805.75 202.875 2797.75 188.875C2789.83 174.792 2785.88 158.958 2785.88 141.375C2785.88 123.792 2789.88 108 2797.88 94C2805.88 79.9167 2816.96 68.9583 2831.12 61.125C2845.29 53.2083 2861.21 49.25 2878.88 49.25C2896.54 49.25 2912.46 53.2083 2926.62 61.125C2940.79 68.9583 2951.83 79.9167 2959.75 94C2967.75 108 2971.75 123.792 2971.75 141.375C2971.75 158.958 2967.75 174.792 2959.75 188.875C2951.83 202.875 2940.75 213.833 2926.5 221.75C2912.33 229.583 2896.38 233.5 2878.62 233.5ZM2827 194.625C2840.5 208.292 2857.79 215.125 2878.88 215.125C2899.96 215.125 2917.21 208.292 2930.62 194.625C2944.04 180.958 2950.75 163.208 2950.75 141.375C2950.75 119.542 2944.04 101.75 2930.62 88C2917.21 74.25 2899.96 67.375 2878.88 67.375C2857.79 67.375 2840.5 74.25 2827 88C2813.58 101.75 2806.88 119.542 2806.88 141.375C2806.88 163.125 2813.58 180.875 2827 194.625ZM3138.75 231H3013.88V51.75H3033.5V213.375H3138.75V231Z"
        fill="white" />
</svg>